<svg width="500" height="500" viewBox="0 0 810 615" fill="none" xmlns="http://www.w3.org/2000/svg">
<rect width="810" height="615" />
<g clip-path="url(#clip0_0_1)">
<path d="M596.668 422.734C596.655 458.366 586.736 493.293 568.019 523.613C549.303 553.934 522.525 578.454 490.678 594.434C489.048 595.254 487.401 596.051 485.738 596.824C442.751 616.773 393.922 620.187 348.578 606.414C344.128 605.054 339.748 603.541 335.438 601.874C296.024 586.628 262.738 558.807 240.741 522.723C218.743 486.639 209.261 444.307 213.764 402.287C218.267 360.267 236.504 320.905 265.649 290.302C294.793 259.699 333.218 239.563 374.968 233.014C384.795 231.494 394.724 230.732 404.668 230.734C510.708 230.734 596.668 316.694 596.668 422.734Z" fill="#F2F2F2"/>
<path d="M610.595 450.099C639.218 419.022 653.946 372.495 638.513 333.166C615.776 373.09 579.65 403.685 536.527 419.538C519.874 425.591 500.722 430.59 491.676 445.826C486.047 455.306 485.648 467.173 488.198 477.898C490.75 488.625 495.99 498.488 501.178 508.217L501.21 510.969C541.745 499.055 581.973 481.175 610.595 450.099Z" fill="#E6E6E6"/>
<path d="M637.652 333.375C632.793 368.007 617.146 400.226 592.933 425.459C587.713 430.833 581.95 435.83 575.288 439.337C568.768 442.705 561.465 444.266 554.138 443.857C547.298 443.613 540.33 442.571 533.551 443.994C526.404 445.494 520.75 450.109 517.082 456.333C512.594 463.948 511.11 472.722 509.956 481.352C508.676 490.935 507.498 500.908 502.025 509.156C501.362 510.155 502.952 511.125 503.614 510.128C513.134 495.779 509.926 477.456 516.345 461.985C519.339 454.766 524.528 448.406 532.292 446.219C539.081 444.307 546.267 445.375 553.19 445.682C560.459 446.004 567.379 445.111 574.035 442.033C580.843 438.884 586.814 434.101 592.149 428.884C604.158 416.964 614.218 403.229 621.96 388.184C630.892 371.061 636.829 352.537 639.514 333.413C639.68 332.229 637.817 332.199 637.652 333.375Z" fill="white"/>
<path d="M601.208 417.793C605.993 421.281 611.862 422.954 617.766 422.514C623.671 422.074 629.227 419.549 633.442 415.391C634.292 414.547 633.02 413.186 632.169 414.032C628.251 417.911 623.075 420.262 617.576 420.661C612.077 421.059 606.616 419.479 602.18 416.205C601.215 415.494 600.248 417.087 601.208 417.793Z" fill="white"/>
<path d="M557.589 444.437C555.607 432.497 558.199 420.248 564.847 410.133C565.506 409.132 563.917 408.161 563.258 409.161C556.36 419.7 553.689 432.452 555.779 444.873C555.979 446.057 557.788 445.615 557.589 444.437Z" fill="white"/>
<path d="M628.429 370.883C626.297 369.92 624.437 368.441 623.017 366.581C621.597 364.721 620.661 362.537 620.293 360.226C620.109 359.04 618.299 359.484 618.483 360.662C618.901 363.214 619.938 365.624 621.502 367.683C623.066 369.741 625.111 371.385 627.457 372.472C627.67 372.592 627.921 372.628 628.158 372.571C628.396 372.513 628.603 372.368 628.738 372.163C628.865 371.952 628.904 371.7 628.847 371.46C628.789 371.22 628.639 371.013 628.429 370.883Z" fill="white"/>
<path d="M502.597 288.565C502.691 289.308 502.786 290.052 502.868 290.806C504.086 300.811 504.488 310.898 504.072 320.968C504.052 321.747 504.02 322.536 503.978 323.313C502.717 347.563 496.964 371.367 487.013 393.517C483.045 402.328 478.412 410.823 473.155 418.931C465.894 430.127 457.131 441.689 454.083 454.26C453.75 455.568 453.499 456.895 453.33 458.234L497.85 510.795C498.011 510.863 498.161 510.943 498.323 511.012L500.004 513.192C500.305 512.793 500.608 512.372 500.908 511.973C501.083 511.742 501.248 511.5 501.423 511.269C501.537 511.111 501.65 510.953 501.762 510.817C501.8 510.765 501.837 510.712 501.864 510.67C501.975 510.534 502.064 510.396 502.164 510.271C503.863 507.925 505.55 505.563 507.222 503.185C507.234 503.175 507.234 503.175 507.236 503.153C519.935 485.003 531.229 465.634 539.225 445.165C539.465 444.55 539.718 443.924 539.938 443.284C543.491 434.038 546.282 424.517 548.283 414.816C549.362 409.501 550.172 404.134 550.708 398.737C552.067 384.789 551.223 370.714 548.208 357.027C542.194 329.745 527.521 304.69 504.376 289.693C503.784 289.31 503.201 288.938 502.597 288.565Z" fill="#E6E6E6"/>
<path d="M502.03 289.248C519.001 319.824 525.906 354.971 521.765 389.695C520.832 397.129 519.239 404.589 516.031 411.399C512.853 418.014 507.962 423.657 501.866 427.742C496.258 431.665 490.067 435.029 485.511 440.247C480.708 445.747 478.972 452.836 479.79 460.014C480.792 468.796 484.889 476.695 489.164 484.281C493.911 492.703 498.975 501.375 499.571 511.255C499.644 512.452 501.497 512.27 501.425 511.075C500.388 493.886 486.794 481.187 482.604 464.971C480.649 457.404 480.963 449.202 485.845 442.782C490.115 437.167 496.496 433.693 502.208 429.77C508.206 425.651 513.193 420.771 516.654 414.306C520.195 407.693 522.083 400.28 523.201 392.902C525.612 376.154 525.376 359.131 522.499 342.457C519.322 323.408 512.909 305.043 503.539 288.157C502.959 287.112 501.453 288.21 502.03 289.248Z" fill="white"/>
<path d="M523.756 378.592C529.677 378.496 535.37 376.299 539.82 372.392C544.269 368.486 547.186 363.125 548.048 357.267C548.218 356.081 546.383 355.761 546.213 356.948C545.42 362.405 542.703 367.398 538.552 371.027C534.401 374.656 529.089 376.682 523.576 376.739C522.378 376.753 522.565 378.606 523.756 378.592Z" fill="white"/>
<path d="M504.971 426.128C496.2 417.787 490.894 406.447 490.112 394.368C490.036 393.171 488.183 393.353 488.259 394.548C489.096 407.116 494.641 418.906 503.788 427.566C504.66 428.39 505.839 426.948 504.971 426.128Z" fill="white"/>
<path d="M517.248 324.748C514.965 325.263 512.59 325.202 510.337 324.572C508.083 323.942 506.021 322.762 504.336 321.138C503.475 320.302 502.297 321.746 503.153 322.576C505.023 324.361 507.302 325.662 509.79 326.364C512.279 327.065 514.901 327.147 517.429 326.602C517.671 326.57 517.893 326.448 518.048 326.259C518.203 326.07 518.281 325.829 518.265 325.585C518.24 325.34 518.119 325.114 517.929 324.957C517.738 324.801 517.494 324.726 517.248 324.748Z" fill="white"/>
<path d="M808.328 37.2998H1.01352C0.742707 37.2938 0.485012 37.182 0.295609 36.9884C0.106205 36.7947 0.000152588 36.5346 0.000152588 36.2637C0.000152588 35.9928 0.106205 35.7327 0.295609 35.5391C0.485012 35.3454 0.742707 35.2336 1.01352 35.2276H808.328C808.599 35.2336 808.857 35.3454 809.046 35.5391C809.236 35.7327 809.342 35.9928 809.342 36.2637C809.342 36.5346 809.236 36.7947 809.046 36.9884C808.857 37.182 808.599 37.2938 808.328 37.2998Z" fill="#CACACA"/>
<path d="M23.8257 22.7943C29.9829 22.7943 34.9744 17.6917 34.9744 11.3972C34.9744 5.10269 29.9829 0 23.8257 0C17.6684 0 12.677 5.10269 12.677 11.3972C12.677 17.6917 17.6684 22.7943 23.8257 22.7943Z" fill="#3F3D56"/>
<path d="M62.3394 22.7943C68.4967 22.7943 73.4881 17.6917 73.4881 11.3972C73.4881 5.10269 68.4967 0 62.3394 0C56.1822 0 51.1907 5.10269 51.1907 11.3972C51.1907 17.6917 56.1822 22.7943 62.3394 22.7943Z" fill="#3F3D56"/>
<path d="M100.853 22.7943C107.01 22.7943 112.002 17.6917 112.002 11.3972C112.002 5.10269 107.01 0 100.853 0C94.6959 0 89.7044 5.10269 89.7044 11.3972C89.7044 17.6917 94.6959 22.7943 100.853 22.7943Z" fill="#3F3D56"/>
<path d="M785.253 6.97128H757.888C757.346 6.95938 756.831 6.73584 756.452 6.34853C756.073 5.96121 755.861 5.44091 755.861 4.89908C755.861 4.35725 756.073 3.83695 756.452 3.44963C756.831 3.06231 757.346 2.83877 757.888 2.82687H785.253C785.794 2.83877 786.31 3.06231 786.689 3.44963C787.068 3.83695 787.28 4.35725 787.28 4.89908C787.28 5.44091 787.068 5.96121 786.689 6.34853C786.31 6.73584 785.794 6.95938 785.253 6.97128Z" fill="#3F3D56"/>
<path d="M785.253 14.7421H757.888C757.346 14.7301 756.831 14.5066 756.452 14.1192C756.073 13.7319 755.861 13.2117 755.861 12.6699C755.861 12.1281 756.073 11.6078 756.452 11.2205C756.831 10.8332 757.346 10.6096 757.888 10.5977H785.253C785.794 10.6096 786.31 10.8332 786.689 11.2205C787.068 11.6078 787.28 12.1281 787.28 12.6699C787.28 13.2117 787.068 13.7319 786.689 14.1192C786.31 14.5066 785.794 14.7301 785.253 14.7421Z" fill="#3F3D56"/>
<path d="M785.253 22.5129H757.888C757.346 22.5009 756.831 22.2773 756.452 21.89C756.073 21.5027 755.861 20.9825 755.861 20.4407C755.861 19.8989 756.073 19.3786 756.452 18.9913C756.831 18.604 757.346 18.3804 757.888 18.3684H785.253C785.794 18.3804 786.31 18.604 786.689 18.9913C787.068 19.3786 787.28 19.8989 787.28 20.4407C787.28 20.9825 787.068 21.5027 786.689 21.89C786.31 22.2773 785.794 22.5009 785.253 22.5129Z" fill="#3F3D56"/>
<path d="M218.881 500.854C196.045 476.06 184.295 438.939 196.607 407.561C214.748 439.414 243.57 463.824 277.975 476.471C291.262 481.301 306.542 485.289 313.759 497.445C318.25 505.009 318.569 514.476 316.534 523.034C314.498 531.591 310.317 539.461 306.178 547.222L306.152 549.418C273.812 539.913 241.717 525.648 218.881 500.854Z" fill="#E6E6E6"/>
<path d="M197.294 407.728C201.171 435.358 213.655 461.064 232.973 481.195C237.054 485.603 241.805 489.34 247.051 492.268C252.253 494.955 258.079 496.2 263.925 495.874C269.382 495.68 274.941 494.849 280.35 495.984C283.11 496.606 285.708 497.805 287.972 499.501C290.236 501.198 292.117 503.354 293.489 505.828C297.07 511.904 298.254 518.904 299.174 525.789C300.196 533.435 301.136 541.392 305.502 547.972C306.031 548.769 304.763 549.543 304.235 548.747C296.639 537.299 299.198 522.68 294.077 510.337C291.688 504.578 287.548 499.504 281.354 497.759C275.938 496.234 270.204 497.086 264.681 497.33C258.983 497.732 253.273 496.732 248.05 494.419C242.673 491.767 237.786 488.22 233.598 483.929C224.017 474.418 215.991 463.46 209.814 451.456C202.688 437.795 197.951 423.016 195.809 407.758C195.676 406.814 197.163 406.79 197.294 407.728Z" fill="white"/>
<path d="M226.371 475.079C222.553 477.862 217.871 479.197 213.16 478.846C208.449 478.495 204.016 476.481 200.653 473.163C199.975 472.49 200.99 471.404 201.669 472.079C204.795 475.174 208.924 477.05 213.312 477.367C217.699 477.685 222.056 476.424 225.595 473.812C226.365 473.245 227.136 474.516 226.371 475.079Z" fill="white"/>
<path d="M261.171 496.337C262.752 486.81 260.685 477.038 255.381 468.968C254.855 468.169 256.123 467.394 256.648 468.193C262.152 476.601 264.283 486.775 262.615 496.685C262.456 497.629 261.012 497.276 261.171 496.337Z" fill="white"/>
<path d="M204.652 437.653C206.354 436.884 207.838 435.705 208.971 434.221C210.104 432.737 210.85 430.995 211.144 429.151C211.291 428.205 212.735 428.559 212.588 429.498C212.254 431.534 211.428 433.457 210.179 435.1C208.931 436.742 207.3 438.054 205.428 438.92C205.258 439.017 205.058 439.045 204.869 438.999C204.679 438.954 204.514 438.838 204.407 438.675C204.305 438.506 204.273 438.305 204.319 438.113C204.366 437.922 204.485 437.757 204.652 437.653Z" fill="white"/>
<path d="M305.046 371.977C304.971 372.57 304.895 373.163 304.829 373.765C303.858 381.747 303.537 389.795 303.869 397.829C303.885 398.45 303.91 399.08 303.944 399.7C304.95 419.047 309.54 438.039 317.479 455.711C320.645 462.74 324.341 469.519 328.535 475.987C334.328 484.92 341.32 494.144 343.752 504.174C344.017 505.217 344.218 506.276 344.352 507.344L308.833 549.279C308.704 549.334 308.585 549.397 308.456 549.453L307.114 551.192C306.875 550.873 306.633 550.538 306.393 550.219C306.254 550.035 306.122 549.842 305.982 549.658C305.891 549.532 305.801 549.406 305.712 549.297C305.682 549.256 305.652 549.213 305.631 549.18C305.542 549.071 305.471 548.961 305.391 548.861C304.035 546.99 302.69 545.105 301.356 543.208C301.346 543.2 301.346 543.2 301.344 543.183C291.213 528.702 282.202 513.248 275.823 496.918C275.631 496.427 275.43 495.928 275.254 495.417C272.42 488.04 270.193 480.444 268.596 472.704C267.735 468.464 267.089 464.182 266.661 459.876C265.577 448.747 266.25 437.518 268.656 426.599C273.454 404.832 285.161 384.842 303.626 372.877C304.099 372.571 304.564 372.274 305.046 371.977Z" fill="#E6E6E6"/>
<path d="M305.498 372.522C291.958 396.916 286.449 424.958 289.753 452.662C290.359 458.638 291.902 464.482 294.327 469.978C296.863 475.256 300.765 479.758 305.629 483.017C310.103 486.147 315.042 488.831 318.678 492.994C320.507 495.153 321.859 497.673 322.646 500.391C323.432 503.109 323.635 505.963 323.242 508.765C322.443 515.772 319.174 522.074 315.763 528.126C311.976 534.845 307.935 541.764 307.46 549.647C307.402 550.602 305.923 550.456 305.981 549.503C306.809 535.789 317.654 525.658 320.997 512.719C322.556 506.682 322.306 500.138 318.411 495.016C315.004 490.537 309.914 487.765 305.356 484.635C300.565 481.525 296.607 477.289 293.83 472.298C291.133 466.943 289.367 461.168 288.607 455.221C286.683 441.859 286.872 428.277 289.167 414.973C291.702 399.776 296.818 385.124 304.294 371.651C304.757 370.817 305.958 371.693 305.498 372.522Z" fill="white"/>
<path d="M288.164 443.804C283.441 443.727 278.898 441.974 275.348 438.857C271.798 435.741 269.471 431.464 268.784 426.79C268.648 425.844 270.112 425.588 270.248 426.536C270.88 430.889 273.048 434.873 276.36 437.768C279.671 440.664 283.909 442.28 288.308 442.325C289.264 442.336 289.115 443.815 288.164 443.804Z" fill="white"/>
<path d="M303.152 481.729C310.15 475.075 314.383 466.027 315.006 456.39C315.067 455.436 316.546 455.58 316.485 456.534C315.817 466.561 311.393 475.968 304.096 482.876C303.4 483.534 302.459 482.384 303.152 481.729Z" fill="white"/>
<path d="M293.356 400.845C295.178 401.256 297.073 401.207 298.871 400.705C300.669 400.202 302.314 399.26 303.658 397.965C304.346 397.298 305.285 398.45 304.602 399.112C303.11 400.536 301.292 401.574 299.307 402.134C297.321 402.694 295.229 402.759 293.213 402.324C293.019 402.299 292.842 402.201 292.718 402.05C292.595 401.9 292.533 401.707 292.545 401.513C292.565 401.317 292.662 401.137 292.814 401.012C292.966 400.887 293.161 400.827 293.356 400.845Z" fill="white"/>
<path d="M748.457 110.338H114.119C113.179 110.339 112.248 110.155 111.379 109.796C110.51 109.437 109.72 108.91 109.055 108.246C108.39 107.581 107.862 106.792 107.502 105.924C107.142 105.055 106.957 104.124 106.957 103.184C106.957 102.244 107.142 101.313 107.502 100.445C107.862 99.5765 108.39 98.7875 109.055 98.1232C109.72 97.4588 110.51 96.9321 111.379 96.5731C112.248 96.2141 113.179 96.0299 114.119 96.031H748.457C749.397 96.0299 750.328 96.2141 751.197 96.5731C752.066 96.9321 752.855 97.4588 753.52 98.1232C754.186 98.7875 754.713 99.5765 755.073 100.445C755.433 101.313 755.619 102.244 755.619 103.184C755.619 104.124 755.433 105.055 755.073 105.924C754.713 106.792 754.186 107.581 753.52 108.246C752.855 108.91 752.066 109.437 751.197 109.796C750.328 110.155 749.397 110.339 748.457 110.338Z" fill="#D50000"/>
<path d="M748.457 138.604H114.119C112.221 138.604 110.402 137.85 109.06 136.509C107.719 135.167 106.965 133.348 106.965 131.45C106.965 129.553 107.719 127.734 109.06 126.392C110.402 125.05 112.221 124.297 114.119 124.297H748.457C750.354 124.297 752.174 125.05 753.515 126.392C754.857 127.734 755.61 129.553 755.61 131.45C755.61 133.348 754.857 135.167 753.515 136.509C752.174 137.85 750.354 138.604 748.457 138.604Z" fill="#D50000"/>
<path d="M624.197 166.87H114.119C112.221 166.87 110.402 166.117 109.06 164.775C107.719 163.434 106.965 161.614 106.965 159.717C106.965 157.82 107.719 156 109.06 154.658C110.402 153.317 112.221 152.563 114.119 152.563H624.197C626.094 152.563 627.913 153.317 629.255 154.658C630.597 156 631.35 157.82 631.35 159.717C631.35 161.614 630.597 163.434 629.255 164.775C627.913 166.117 626.094 166.87 624.197 166.87Z" fill="#D50000"/>
<path d="M707.004 398.143C714.153 402.996 722.1 408.456 724.404 417.314C724.933 419.206 725.075 421.185 724.82 423.133C724.565 425.081 723.918 426.958 722.919 428.649C721.085 431.707 718.351 434.11 715.685 436.425C712.518 439.176 709.325 441.879 706.868 445.313C705.743 446.886 708.343 448.386 709.458 446.828C714.014 440.461 721.585 436.854 725.595 430.021C730.337 421.94 727.172 412.357 721.296 405.815C717.629 401.733 713.03 398.615 708.518 395.553C706.916 394.465 705.414 397.064 707.004 398.143Z" fill="#E6E7E8"/>
<path d="M732.004 398.143C739.153 402.996 747.1 408.456 749.404 417.314C749.933 419.206 750.075 421.185 749.82 423.133C749.565 425.081 748.918 426.958 747.919 428.649C746.085 431.707 743.351 434.11 740.685 436.425C737.518 439.176 734.326 441.879 731.868 445.313C730.743 446.886 733.343 448.386 734.458 446.828C739.014 440.461 746.585 436.854 750.595 430.021C755.337 421.94 752.172 412.357 746.296 405.815C742.629 401.733 738.03 398.615 733.518 395.553C731.916 394.465 730.414 397.064 732.004 398.143Z" fill="#E6E7E8"/>
<path d="M123.352 398.143C116.203 402.996 108.256 408.456 105.952 417.314C105.423 419.206 105.281 421.185 105.536 423.133C105.791 425.081 106.438 426.958 107.437 428.649C109.271 431.707 112.004 434.11 114.671 436.425C117.838 439.176 121.03 441.879 123.488 445.313C124.613 446.886 122.012 448.386 120.897 446.828C116.342 440.461 108.77 436.854 104.761 430.021C100.019 421.94 103.184 412.357 109.06 405.815C112.727 401.733 117.326 398.615 121.838 395.553C123.44 394.465 124.942 397.064 123.352 398.143Z" fill="#E6E7E8"/>
<path d="M98.3522 398.143C91.2029 402.996 83.2562 408.456 80.9523 417.314C80.4226 419.206 80.2811 421.185 80.5361 423.133C80.7912 425.081 81.4377 426.958 82.4366 428.649C84.2712 431.707 87.0045 434.11 89.6706 436.425C92.838 439.176 96.0304 441.879 98.4878 445.313C99.6132 446.886 97.0124 448.386 95.8974 446.828C91.3415 440.461 83.7704 436.854 79.7609 430.021C75.019 421.94 78.1834 412.357 84.06 405.815C87.7272 401.733 92.3258 398.615 96.838 395.553C98.4396 394.465 99.9423 397.064 98.3522 398.143Z" fill="#E6E7E8"/>
<path d="M374.121 294.29C387.006 294.29 397.451 283.844 397.451 270.959C397.451 258.074 387.006 247.629 374.121 247.629C361.236 247.629 350.79 258.074 350.79 270.959C350.79 283.844 361.236 294.29 374.121 294.29Z" fill="#2F2E41"/>
<path d="M411.449 382.945C444.091 382.945 470.553 356.484 470.553 323.842C470.553 291.2 444.091 264.738 411.449 264.738C378.807 264.738 352.346 291.2 352.346 323.842C352.346 356.484 378.807 382.945 411.449 382.945Z" fill="#2F2E41"/>
<path d="M416.34 382.931C442.866 382.931 464.369 361.428 464.369 334.902C464.369 308.377 442.866 286.874 416.34 286.874C389.815 286.874 368.312 308.377 368.312 334.902C368.312 361.428 389.815 382.931 416.34 382.931Z" fill="#9E616A"/>
<path d="M448.956 285.944C440.54 280.813 430.9 278.038 421.044 277.908C411.189 277.778 401.479 280.298 392.93 285.205C384.382 290.112 377.309 297.226 372.451 305.802C367.593 314.379 365.128 324.103 365.314 333.957C389.787 340.102 415.497 344.804 441.596 335.427L447.759 320.343L451.393 335.438C459.341 338.687 467.309 341.436 475.278 335.407C475.603 325.58 473.344 315.839 468.724 307.159C464.105 298.479 457.289 291.164 448.956 285.944Z" fill="#2F2E41"/>
<path d="M324.862 423.734H324.798C321.634 423.765 318.535 422.837 315.91 421.071C313.284 419.306 311.254 416.787 310.089 413.846C308.835 410.867 308.513 407.578 309.164 404.413C309.816 401.247 311.412 398.353 313.74 396.112L314.01 395.845C323.1 386.69 328.222 374.325 328.267 361.424C328.279 343.205 318.08 326.367 308.52 312.015L306.758 309.375C297.23 295.122 287.378 280.384 284.87 263.406C282.207 245.376 289.034 226.344 302.264 214.92C315.995 203.064 336.697 199.877 352.607 207.171C369.097 214.732 379.705 233.568 377.281 250.985L377.257 251.166L371.462 256.378L371.248 256.362C357.527 255.305 343.859 264.346 339.442 277.373C336.468 286.143 337.538 295.752 339.135 304.83C342.523 324.057 348.218 342.804 356.098 360.666C356.498 361.573 356.903 362.484 357.313 363.398C361.906 373.683 366.655 384.316 364.836 395.331C361.962 412.738 343.486 422.925 327.56 423.671C326.658 423.714 325.759 423.735 324.862 423.734Z" fill="#D50000"/>
<path d="M533.798 564.834C520.837 576.616 506.33 586.574 490.678 594.434L487.368 583.774L484.698 594.164L485.738 596.824C484.588 597.364 483.428 597.884 482.268 598.394C481.278 598.834 480.288 599.264 479.298 599.684C443.045 614.914 403.002 618.696 364.538 610.524C363.528 610.314 362.528 610.094 361.528 609.864C357.158 608.864 352.838 607.704 348.578 606.414L354.538 584.254L349.238 557.464L335.438 601.874C319.773 595.811 304.973 587.715 291.418 577.794C295.658 550.384 300.628 517.484 303.698 494.714C304.808 486.394 305.668 479.434 306.148 474.574C306.537 470.02 307.429 465.523 308.808 461.164C309.485 459.057 310.352 457.015 311.398 455.064C311.618 454.634 311.858 454.224 312.098 453.824C312.328 453.434 312.568 453.064 312.818 452.704C318.958 443.554 326.838 444.114 326.838 444.114L350.358 439.524L357.708 438.084L360.698 437.504L364.358 436.784C367.154 436.239 369.804 435.114 372.138 433.481C374.472 431.848 376.437 429.744 377.908 427.304L387.898 410.714C390.015 407.207 393.136 404.417 396.858 402.704C397.308 402.504 397.768 402.314 398.228 402.134C400.259 401.373 402.4 400.945 404.568 400.864L418.708 400.314L424.428 400.084L432.238 399.784C434.081 399.711 435.925 399.893 437.718 400.324H437.728C438.358 400.474 438.958 400.644 439.568 400.854C444.292 402.449 448.267 405.723 450.738 410.054L457.718 422.294C459.288 425.047 461.479 427.396 464.116 429.155C466.752 430.913 469.763 432.033 472.908 432.424L475.588 432.754L478.598 433.134L486.208 434.084L500.108 435.824L500.138 436.354C502.798 436.564 510.378 438.124 515.458 448.954C515.798 449.664 516.118 450.424 516.428 451.214C518.207 456.017 519.34 461.034 519.798 466.134C519.828 466.354 519.848 466.574 519.868 466.794C521.568 484.124 528.158 528.314 533.798 564.834Z" fill="#2F2E41"/>
<path d="M420.547 610.155L419.598 614.584L416.668 613.954L417.539 609.891C420.289 597.071 421.531 583.973 421.24 570.864L417.558 405.124L417.488 402.144L417.448 400.334L418.968 400.304L420.448 400.274L420.598 407.154L424.24 571.162C424.531 584.259 423.292 597.345 420.547 610.155Z" fill="#D50000"/>
<path d="M303.018 499.674L345.198 505.434L348.148 505.834L349.948 506.084L349.738 507.584L349.528 509.054L342.708 508.124L302.608 502.644L303.018 499.674Z" fill="#D50000"/>
<path d="M428.898 403.074L424.428 400.084L418.968 400.304L418.708 400.314L417.488 402.144L417.558 405.124L420.598 407.154L424.448 409.724C424.884 410.018 425.375 410.223 425.891 410.327C426.406 410.431 426.938 410.432 427.454 410.33C427.97 410.229 428.462 410.026 428.9 409.734C429.338 409.443 429.714 409.067 430.006 408.63C430.299 408.193 430.502 407.702 430.605 407.186C430.708 406.67 430.708 406.138 430.605 405.622C430.502 405.106 430.298 404.615 430.005 404.178C429.712 403.741 429.336 403.366 428.898 403.074ZM428.338 407.514C428.117 407.843 427.804 408.098 427.439 408.249C427.073 408.4 426.671 408.438 426.283 408.361C425.895 408.283 425.539 408.092 425.26 407.812C424.981 407.532 424.791 407.175 424.714 406.787C424.637 406.399 424.677 405.997 424.829 405.632C424.98 405.266 425.237 404.954 425.566 404.734C425.895 404.515 426.281 404.398 426.677 404.398C427.072 404.398 427.459 404.515 427.788 404.734C428.228 405.031 428.533 405.49 428.636 406.011C428.74 406.532 428.632 407.072 428.338 407.514Z" fill="#D50000"/>
</g>
<defs>
<clipPath id="clip0_0_1">
<rect width="809.342" height="614.734" fill="white"/>
</clipPath>
</defs>
</svg>
